<svg xmlns="http://www.w3.org/2000/svg" width="81.297" height="73.517" viewBox="0 0 81.297 73.517"><defs><style>.a{fill:#f01719;stroke:#f01719;}</style></defs><g transform="translate(0.5 0.5)"><path class="a" d="M111.619,178.617A24.37,24.37,0,0,0,95.9,184.344a24.427,24.427,0,0,0-36.184,32.047,6.612,6.612,0,0,0,4.832,11.132,6.73,6.73,0,0,0,1.166-.1,6.606,6.606,0,0,0,6.51,7.779,6.723,6.723,0,0,0,1-.075,6.606,6.606,0,0,0,6.538,7.614,6.722,6.722,0,0,0,1.166-.1A6.617,6.617,0,0,0,92.12,248.48l.608-.608,1.409,1.409a6.33,6.33,0,0,0,10.794-4.023,6.332,6.332,0,0,0,8.943-6.562,6.466,6.466,0,0,0,.813.053,6.324,6.324,0,0,0,6.279-7.145,6.458,6.458,0,0,0,.813.053,6.33,6.33,0,0,0,5.362-9.705c2.2-2.21,3.412-3.461,3.633-3.74a24.491,24.491,0,0,0,2.692-4.22,24.182,24.182,0,0,0,2.585-10.945A24.459,24.459,0,0,0,111.619,178.617Zm-26.65,67.656a3.506,3.506,0,0,1-.524-4.263,3.461,3.461,0,0,1,.524-.68l.663-.663,1.495-1.495.6-.6.055-.055,3.03-3.03a3.47,3.47,0,0,1,2.039-.99h0a3.539,3.539,0,0,1,.432-.03,3.484,3.484,0,0,1,2.472,1.02h0a3.491,3.491,0,0,1,.99,2.9h0a3.47,3.47,0,0,1-.968,2.015l-.021.024-3.03,3.03-2.208,2.208-.608.608a3.463,3.463,0,0,1-.7.536,3.5,3.5,0,0,1-4.243-.536ZM77.293,238.6a3.506,3.506,0,0,1-.5-4.3,3.459,3.459,0,0,1,.5-.642l2.188-2.188,3.658-3.658a3.505,3.505,0,0,1,4.943,0h0a3.505,3.505,0,0,1,0,4.943L84.4,236.428,82.236,238.6a3.461,3.461,0,0,1-.666.516,3.5,3.5,0,0,1-4.277-.516ZM62.078,223.382a3.509,3.509,0,0,1,0-4.943l2.3-2.3,3.545-3.545a3.506,3.506,0,0,1,4.943,0h0a3.506,3.506,0,0,1,0,4.943l-3.6,3.6-2.244,2.244a3.506,3.506,0,0,1-4.943,0Zm7.676,7.676h0a3.507,3.507,0,0,1-.474-4.349,3.467,3.467,0,0,1,.474-.594l2.226-2.226,3.62-3.62a3.505,3.505,0,0,1,4.943,0h0a3.506,3.506,0,0,1,0,4.943L76.9,228.858l-2.2,2.2a3.505,3.505,0,0,1-4.943,0Zm28.863,16.954a3.2,3.2,0,0,1-2.272-.937l-1.409-1.409,1.274-1.274,1.756-1.756a6.62,6.62,0,0,0,1.064-1.392q.106-.184.2-.374h0l1.157,1.157.5.5a3.223,3.223,0,0,1,0,4.544h0a3.186,3.186,0,0,1-.626.482A3.22,3.22,0,0,1,98.617,248.011Zm31.36-35.769a20.592,20.592,0,0,1-2.254,3.537c-.235.276-1.342,1.408-3.228,3.3l-7.859-7.851a1.56,1.56,0,0,0-2.12.079h0a1.56,1.56,0,0,0-.079,2.12l3.132,3.141h0l4.72,4.72,1.762,1.762a3.179,3.179,0,0,1,.762,1.232,3.205,3.205,0,0,1-4.084,4.072,3.179,3.179,0,0,1-1.223-.759l-1.769-1.769-5.391-5.391h0l-2.746-2.747h0a1.778,1.778,0,0,0-2.514,0l-.033.033a1.778,1.778,0,0,0,0,2.515l.1.1,8.03,8.03,1.778,1.778a3.181,3.181,0,0,1,.754,1.209,3.22,3.22,0,0,1-.754,3.335h0a3.2,3.2,0,0,1-2.272.937,3.24,3.24,0,0,1-1.089-.192,3.178,3.178,0,0,1-1.183-.745l-1.8-1.8-5.364-5.364h0l-2.746-2.747h0a1.778,1.778,0,0,0-2.514,0l-.033.033a1.778,1.778,0,0,0,0,2.515l.183.183,7.915,7.915,1.809,1.809a3.18,3.18,0,0,1,.738,1.162,3.221,3.221,0,0,1-.738,3.383h0a3.2,3.2,0,0,1-2.272.937,3.238,3.238,0,0,1-1.144-.211,3.178,3.178,0,0,1-1.128-.726l-1.834-1.834-3.854-3.854a6.606,6.606,0,0,0-4.489-4.489c-.076-.022-.153-.044-.231-.064a4.179,4.179,0,0,0-.894-.159,6.592,6.592,0,0,0-1.9.062,6.606,6.606,0,0,0-6.51-7.779,6.737,6.737,0,0,0-1,.075,6.606,6.606,0,0,0-6.538-7.614,6.728,6.728,0,0,0-1.166.1,6.617,6.617,0,0,0-11.189-5.845l-3.169,3.169c-.258-.432-.5-.871-.726-1.32a20.312,20.312,0,0,1-2.166-9.186A20.52,20.52,0,0,1,93.5,187.428h0l-12.862,12.5-.025.025a4.561,4.561,0,0,0-1.5,4.334c.425,1.55,1.857,2.657,4.257,3.289a15.055,15.055,0,0,0,3.929.558,16.759,16.759,0,0,0,6.3-1.354l.069-.029a22.48,22.48,0,0,0,5.29-3.539,8.663,8.663,0,0,1,2.1-1.495,8.842,8.842,0,0,1,2.989.469,18.283,18.283,0,0,0,6.3.776l.074-.007c.28-.031,6.9-.806,10.414-5.314a1.639,1.639,0,0,0-2.585-2.016c-2.555,3.275-7.723,4.011-8.159,4.068a15.1,15.1,0,0,1-5.209-.676,11.138,11.138,0,0,0-4.3-.547l-.155.026a8.893,8.893,0,0,0-3.581,2.2,19.526,19.526,0,0,1-4.509,3.053,11.705,11.705,0,0,1-8.14.655c-1.468-.387-1.891-.842-1.93-.985-.032-.117.092-.569.666-1.155L96.3,189.242l.965-.868a20.53,20.53,0,0,1,32.711,23.869Z" transform="translate(-55.753 -178.617)"/></g></svg>