<?xml version="1.0" encoding="utf-8"?>
<!-- Generator: Adobe Illustrator 24.1.1, SVG Export Plug-In . SVG Version: 6.00 Build 0)  -->
<svg version="1.1" id="Layer_1" xmlns="http://www.w3.org/2000/svg" xmlns:xlink="http://www.w3.org/1999/xlink" x="0px" y="0px"
	 viewBox="0 0 668.9 239.5" style="enable-background:new 0 0 668.9 239.5;" xml:space="preserve">
<style type="text/css">
	.st0{fill:#F4F3EA;stroke:#FFFFFF;stroke-width:1.5;stroke-miterlimit:10;}
	.st1{fill:#1172B1;stroke:#FFFFFF;stroke-width:1.5;stroke-miterlimit:10;}
	.st2{fill:#ED1C24;}
</style>
<path class="st0" d="M297.1,62c0,0,16.7,4.8,28.8,22.3c0,0,5.5-7.2,22.7-13.5C348.6,70.8,320.3,54.6,297.1,62z"/>
<path class="st1" d="M377.5,111c0,0-15.8-26.3-51.5-26.7c0,0,8.5-8.7,24.5-15.2L405.8,83C405.8,83,384.6,95.6,377.5,111z"/>
<path class="st0" d="M459,143.6c0,0-28.2-31.8-81.5-32.7c0,0,6.2-14,25-26.5c0,0,31.3,8.5,58.7,22.7
	C461.1,107.1,464.6,115.3,459,143.6z"/>
<path class="st1" d="M512.5,155c0,0-23.7-20-53.6-11.3c0,0,4.3-21.5,2.5-33.5l44.7,18.8C506.1,129,513.1,142.1,512.5,155z"/>
<path class="st0" d="M544,160.3c0,0-9.3-7.9-31.4-5.3c0,0-0.6-11.7-5.2-22.5C507.3,132.5,545.3,146.5,544,160.3z"/>
<polygon points="376.9,207.8 424.6,93.3 428.9,94.8 380.4,209.6 "/>
<path class="st1" d="M297.6,61.5c0,0,56.3-65.5,153.5-34.8c0,0-60.3,15-87.5,54C363.6,80.6,332.6,58.5,297.6,61.5z"/>
<path class="st1" d="M544.6,158.6c0,0,3.1-86.3-89-129.8c0,0,34.1,52,27.5,99.1C483.1,127.8,521,132.6,544.6,158.6z"/>
<path class="st0" d="M363.6,81.1c0,0,19.8-36.5,87.5-54.5l4,1.5c0,0,35.5,52.7,28,99.7C483.1,127.8,436.8,81.6,363.6,81.1z"/>
<g>
	<path class="st2" d="M55.7,143.4c0,2.2-0.8,4.5-2.5,6.9c-1.7,2.4-3.4,4.8-5.1,7.3c-3,5.4-5.4,9.9-7.2,13.5
		c-1.8,3.7-2.6,5.8-2.3,6.4c0,0.3,0,0.6,0,0.9c0,1.7-1,3.9-2.9,6.5c-1.9,2.6-3.7,3.9-5.2,3.9c-0.2,0-0.5-0.1-0.8-0.2
		c-0.9-0.4-1.4-1.3-1.4-2.9c0-2.2,1-5.6,3.1-10c1.7-3.8,3.7-7.5,6-11.2c2.5-4,5.2-7.8,7.9-11.5c3.2-4.2,4.7-6.7,4.6-7.3
		c-0.1-0.2-0.3-0.4-0.8-0.5c-0.5-0.1-1.1-0.2-1.9-0.2c-3.9,0-9.6,0.8-17.2,2.4c-7.6,1.6-11.5,2.8-11.7,3.6c-0.1,0.3,0.5,0.7,1.6,1.1
		c1.1,0.5,1.7,0.9,1.7,1.2c0,0.3-0.5,0.5-1.6,0.6c-1.1,0.2-2.4,0.3-4.1,0.3c-1.6,0-3-0.1-4.1-0.4c-1.1-0.3-1.6-0.8-1.6-1.4
		c0.4-3.9,1.6-7.8,3.7-11.5c0.6-1.1,4-2.5,10.4-4.2c7.1-1.9,13.4-2.8,19-2.8c4.5,0,7.9,1.1,10,3.3C54.9,139,55.7,141,55.7,143.4z"/>
	<path class="st2" d="M85.8,178c0,0.6-2.4,2.5-7.3,5.8c-5.3,3.6-9.1,5.4-11.5,5.4c-0.6,0-1.1-0.1-1.5-0.4c-1-0.7-1.5-1.9-1.5-3.4
		c0-1.8,0.8-4.3,2.3-7.4c1.4-2.9,2-4.3,1.9-4.4c-2.5,2.4-5,4.8-7.5,7.2c-4.7,5.4-7.5,7.9-8.4,7.5c-0.8-0.3-1.4-1.3-1.9-3
		c-0.5-1.7-0.8-3.5-0.8-5.5c0-0.3,0-0.6,0-0.9c0.1-0.4,0.2-0.7,0.2-0.9c0.6-3.9,3.3-9.6,8.3-16.9c4.4-6.5,9.1-12.6,14.2-18.2
		c5.1-5.6,8.4-8.4,9.9-8.4c0.6,0,1.2,0.2,1.8,0.6c0.6,0.4,0.8,0.8,0.8,1.2c-0.4,2.8-3.1,7.3-8.1,13.8c-4.5,5.5-9.1,10.9-13.6,16.4
		c-4.8,5.8-7.2,9.3-7.2,10.7c0,0.3,0.1,0.5,0.4,0.7c0.4,0.2,1.9-1.1,4.6-3.7c3.6-3.6,6.3-6.1,8.2-7.7c3.5-2.9,6.1-4.4,7.9-4.4
		c0.8,0,1.5,0.3,2.1,1c0.6,0.6,0.9,1.4,0.9,2.3c0,1.6-1.4,4.2-4.1,7.6c-2.7,3.4-4.1,5.7-4.1,6.8c0,0.7,0.3,1.3,0.9,1.7
		c0.3,0.2,0.6,0.2,0.9,0.2c1.4,0,3.8-1.1,7.4-3.2c1.6-1,3.3-2,4.9-3L85.8,178z"/>
	<path class="st2" d="M114.1,178c0,0.5-2.5,2.4-7.6,5.6c-5.7,3.6-10.2,5.4-13.5,5.4c-2.7,0-4.8-1.4-6.3-4.2
		c-1.2-2.2-1.8-4.6-1.8-7.2c0-5.9,2.9-10.9,8.8-15.2c4.7-3.4,8.7-5.1,12.2-5.1c1.7,0,2.9,0.4,3.6,1.1c0.5,0.6,0.8,1.2,0.8,2.1
		c0,3-1.6,5.9-4.8,8.6c-7.3,4.3-11.4,6.8-12.3,7.3c-0.4,0.3-0.6,0.7-0.6,1.4c0,1,0.4,1.9,1.3,2.8c1.1,1,2.5,1.5,4.3,1.5
		c2,0,5.3-1.2,9.9-3.5c4.1-2.1,6.2-3.3,6.2-3.4V178z M104,161.8c-0.2-0.3-1,0-2.4,0.8c-1.4,0.8-2.6,1.7-3.7,2.7
		c-1.1,1-2.1,2.3-3.1,3.7c-0.9,1.5-1.2,2.4-0.8,2.8c0.3,0.3,1.2,0,2.8-1c1.5-1,3-2.2,4.4-3.5c0.9-0.9,1.7-1.9,2.4-3.1
		C104.2,163,104.4,162.3,104,161.8z"/>
	<path class="st2" d="M189.7,143.8c0,2.8-1.6,5.5-4.9,8.2c-2.7,2.2-5.9,4-9.6,5.4c-2.8,1-6.7,1.9-11.5,2.8c-3.1,0.6-4.7,1.1-4.7,1.8
		c0,0.5,1.9,1.1,5.6,1.9c4.8,1,8.3,1.9,10.4,2.8c3.8,1.6,5.7,3.7,5.7,6.3c0,3.3-3.1,6.8-9.2,10.5c-6.1,3.7-12,5.5-17.5,5.5
		c-3.3,0-6.3-0.7-8.9-2.2c-3-1.7-4.4-3.8-4.4-6.5c0-2,0.7-4.3,2.1-6.8c1.5-2.5,3.1-5,4.6-7.5c-0.1-0.3-0.9-0.9-2.7-1.9
		c-0.9-0.5-1.4-1-1.5-1.5c-0.5-1.6,2-2.9,7.6-3.9c2.9-0.5,4.5-1,4.8-1.6c1.6-2.4,3.6-4.7,6-6.7c2.4-2,4.2-3,5.2-3.2
		c1.1-0.1,1.7-0.2,1.8-0.2c0.9,0,1.3,0.2,1.3,0.7c0,0.6-0.9,1.8-2.7,3.8c-1.8,2-2.8,3.3-2.9,4c-0.1,0.4,0.3,0.5,1.1,0.5
		c2.4,0,6-1,10.5-3.1c5-2.2,7.5-4.2,7.5-6c-0.1-1.4-0.8-2.4-2.2-3.1c-1.4-0.7-3.5-1.1-6.3-1.1c-2,0-5.8,0.6-11.3,1.8
		c-6.4,1.4-9.6,2.6-9.5,3.7c0,0.6-0.5,1.2-1.5,1.6c-1,0.5-2.9,1.1-5.7,1.7c-1.1,0.4-2,0.7-2.8,0.9c-1.6,0.5-2.8,0.8-3.5,0.8
		c-1.3,0-1.9-0.5-1.9-1.5c0-0.8,0.4-1.9,1.3-3.4c1.1-1.9,2.6-4.1,4.5-6.5c0.9-1.1,4.6-2.6,11.3-4.5c7.5-2.2,13.7-3.3,18.7-3.3
		c4.8,0,8.5,0.8,11.2,2.5C188.3,138.4,189.7,140.8,189.7,143.8z M172.9,171.5c0-1.5-2.9-2.9-8.6-4.1c-1.9-0.4-4.8-0.9-8.6-1.4
		c-1.5,1.5-2.6,2.7-3.3,3.5c-2.2,2.7-3.2,4.9-3.1,6.6c0,1.7,1.2,2.8,3.7,3.3c1.2,0.3,3.1,0.4,5.8,0.4c2.4,0,5.4-1,8.9-2.9
		C171.2,174.8,172.9,173.1,172.9,171.5z"/>
	<path class="st2" d="M223.1,178c-2.8,2.4-5,4.3-6.7,5.4c-5,3.6-9,5.4-11.8,5.4c-1.2,0-2.1-0.3-2.8-1c-0.7-0.7-1-1.7-1-3.2
		c0-1.1,0.2-2.3,0.5-3.7c0.1-0.6,0.2-1.2,0.4-1.8c-0.3-0.2-1.9,1.5-5.1,4.9c-3.1,3.4-5.3,5.1-6.5,5.1c-1.1,0-2.4-1.4-3.8-4.1
		c-1.4-2.7-2.1-5.2-2.1-7.4c0-3.7,2.1-7.3,6.3-10.8c3.2-2.6,7.3-5,12.2-7.2c4.1-1.7,6.7-2.5,7.7-2.4c0.6,0.1,1.3,0.7,2.1,1.8
		c0.8,1.1,1.1,1.9,0.9,2.4c-0.1,0.4-0.3,0.8-0.7,1.3c-0.4,0.5-0.5,0.9-0.5,1.1c0.1,0.4,0.1,0.9,0.2,1.6c0.1,0.7,0.1,1.2,0.1,1.5
		c0,1.3-0.8,3.2-2.4,5.9c-1.6,2.7-2.4,4.5-2.4,5.4c0,0.7,0.3,1.3,0.8,1.8c0.3,0.3,0.7,0.4,1.4,0.4c1.7,0,4.4-0.9,8.2-2.6
		c1.2-0.6,3-1.4,5.2-2.6V178z M206.8,165.9c-0.3-0.3-1.7,0.2-4.4,1.4c-2.7,1.2-5,2.4-6.9,3.7c-1.5,1-2.9,2.4-4.1,4
		c-1.2,1.7-1.8,3.1-1.8,4.4c0,0.6,0.2,1.2,0.6,1.7c0.3,0.3,0.6,0.5,1,0.5c1,0,2.6-1,4.8-3c1-1,2.1-2,3.1-3c2.1-2,3.9-3.9,5.6-5.8
		C206.6,167.5,207.3,166.3,206.8,165.9z"/>
	<path class="st2" d="M253.1,178c-3.3,2.6-5.9,4.5-7.8,5.8c-5.9,3.9-10.3,5.8-13.5,5.8c-2.4,0-4.9-1.1-7.3-3.4
		c-2.6-2.4-3.9-5.2-3.9-8.2c0-0.3,2.5-2.6,7.4-7c5.2-4.6,8.2-7.7,8.9-9.2c0.7-1.5,1.2-2.4,1.5-2.8c0.8-0.9,1.9-1.3,3.3-1.3
		c1.2,0,2,1,2.4,3.1c0.2,1,0.5,3,1,6.2c0,0.3,0.1,0.7,0.1,1.3c0,1.5-0.2,3.1-0.7,4.6c-0.5,1.5-1.3,3-2.4,4.4
		c-1.2,1.4-2.7,2.8-4.5,4.2c-0.6,0.6-1.2,1.1-1.8,1.7c0.5,0.3,1,0.5,1.7,0.5c2.1,0,5.4-1.4,9.7-4.3c3.9-2.6,5.9-4,5.9-4.1V178z
		 M236.7,177.3c0.3-0.5,0.5-1.3,0.6-2.4c0.2-1.1,0.2-2.1,0.2-3.1c0-1.4-0.1-2.5-0.3-3.3c-0.2-0.8-0.5-1.2-0.9-1.2
		c-0.7,0-2.4,1.3-5.1,4c-2.8,2.7-4.1,4.3-4.1,5c0,0.7,0.8,1.7,2.4,3.1c1.6,1.4,2.6,2.1,2.9,1.9c0.7-0.2,1.4-0.7,2.3-1.6
		C235.8,178.9,236.4,178.1,236.7,177.3z"/>
	<path class="st2" d="M281.7,178c0,0.5-2.5,2.4-7.6,5.6c-5.7,3.6-10.2,5.4-13.5,5.4c-2.7,0-4.8-1.4-6.3-4.2
		c-1.2-2.2-1.8-4.6-1.8-7.2c0-5.9,2.9-10.9,8.8-15.2c4.7-3.4,8.7-5.1,12.2-5.1c1.7,0,2.9,0.4,3.6,1.1c0.5,0.6,0.8,1.2,0.8,2.1
		c0,3-1.6,5.9-4.8,8.6c-7.3,4.3-11.4,6.8-12.3,7.3c-0.4,0.3-0.6,0.7-0.6,1.4c0,1,0.4,1.9,1.3,2.8c1.1,1,2.5,1.5,4.3,1.5
		c2,0,5.3-1.2,9.9-3.5c4.1-2.1,6.2-3.3,6.2-3.4V178z M271.7,161.8c-0.2-0.3-1,0-2.4,0.8c-1.4,0.8-2.6,1.7-3.7,2.7
		c-1.1,1-2.1,2.3-3.1,3.7c-0.9,1.5-1.2,2.4-0.8,2.8c0.3,0.3,1.2,0,2.8-1c1.5-1,3-2.2,4.4-3.5c0.9-0.9,1.7-1.9,2.4-3.1
		C271.9,163,272,162.3,271.7,161.8z"/>
	<path class="st2" d="M339.2,178c0,0.8-3.8,3.7-11.5,8.7c-4,2.6-6.7,3.9-8,3.9c-1.3,0-2.4-0.4-3.3-1.1c-0.9-0.8-1.4-1.8-1.4-3
		c0-1.5,0.5-3.3,1.4-5.4c0.9-2.1,1.9-4.3,2.9-6.5c0-0.4-0.1-0.6-0.4-0.6c-0.5-0.1-2,1.2-4.6,4c-1.6,1.7-2.8,2.9-3.7,3.7
		c-0.6,0.5-1.7,1.7-3.5,3.6c-2.5,2.7-4.5,4-6,4c-0.4,0-0.8-0.1-1.3-0.2c-0.7-0.3-1.2-0.7-1.6-1.2c-0.4-0.5-0.5-1.1-0.5-1.8
		c0-1.6,1.1-4.1,3.2-7.6c2.1-3.5,3.2-5.6,3.2-6.3c0-0.4-0.1-0.6-0.3-0.8c-0.6-0.5-2,0.4-4.1,2.6c-2.1,2.2-4.2,4.4-6.2,6.6
		c-1.5,2.1-2.7,3.8-3.6,5c-1.6,2.2-3.2,3.4-4.6,3.4c-1.1,0-2.2-1.2-3.2-3.5c-1-2.3-1.5-4.7-1.5-7.1c0-2.3,1.6-5.7,4.7-9.9
		c2.8-3.8,4.6-5.9,5.6-6.3c1-0.5,1.9-0.7,2.7-0.7c1.2,0,2.3,0.3,3.4,1c0.3,0.3,0.5,0.5,0.5,0.8c0,0.9-1.5,3.1-4.6,6.5
		c-3.1,3.4-4.6,5.7-4.6,6.8c0,0.3,0.1,0.6,0.4,1c0.4,0.4,2.2-1,5.3-4.1c4.8-4.9,8-8,9.6-9.3c4-3.5,7-5.2,9.1-5.2
		c1.1,0,1.9,0.4,2.5,1.2c0.4,0.6,0.6,1.3,0.6,2.2c0,1.5-0.6,3.3-1.8,5.5c-1.2,2.2-2.3,4.3-3.4,6.4c0.3,0.2,1.9-0.9,4.7-3.3
		c4.2-3.5,6.9-5.8,8.3-6.8c3.2-2.5,5.2-3.7,6.1-3.5c0.6,0.1,1.3,0.7,2,1.7c0.7,1,1.1,1.9,1.1,2.6c0,0.9-1.5,3.3-4.5,7.3
		c-3,3.9-4.5,6.6-4.5,8c0,1.1,0.6,1.8,1.9,2.1c0.9,0.2,3.4-0.8,7.5-3.1c1.4-0.8,3.4-2,6-3.6V178z"/>
	<path class="st2" d="M367.8,178c0,0.5-2.5,2.4-7.6,5.6c-5.7,3.6-10.2,5.4-13.5,5.4c-2.7,0-4.8-1.4-6.3-4.2
		c-1.2-2.2-1.8-4.6-1.8-7.2c0-5.9,2.9-10.9,8.8-15.2c4.7-3.4,8.7-5.1,12.2-5.1c1.7,0,2.9,0.4,3.6,1.1c0.5,0.6,0.8,1.2,0.8,2.1
		c0,3-1.6,5.9-4.8,8.6c-7.3,4.3-11.4,6.8-12.3,7.3c-0.4,0.3-0.6,0.7-0.6,1.4c0,1,0.4,1.9,1.3,2.8c1.1,1,2.5,1.5,4.3,1.5
		c2,0,5.3-1.2,9.9-3.5c4.1-2.1,6.2-3.3,6.2-3.4V178z M357.8,161.8c-0.2-0.3-1,0-2.4,0.8c-1.4,0.8-2.6,1.7-3.7,2.7
		c-1.1,1-2.1,2.3-3.1,3.7c-0.9,1.5-1.2,2.4-0.8,2.8c0.3,0.3,1.2,0,2.8-1c1.5-1,3-2.2,4.4-3.5c0.9-0.9,1.7-1.9,2.4-3.1
		C358,163,358.2,162.3,357.8,161.8z"/>
	<path class="st2" d="M405.1,178c0,0.6-2.6,3-7.9,7c-5.6,4.3-9.3,6.4-11.1,6.4c-1.6,0-2.7-0.5-3.4-1.6c-0.7-1.1-1.1-2.5-1.1-4.3
		c0-1.5,0.6-3.3,1.8-5.4c2.2-3.9,3.2-5.9,3-6.1c-0.3-0.3-0.9,0.1-1.9,1.1c-2.6,2.9-4.4,4.8-5.5,6c-0.3,0.3-1.3,1.5-3.1,3.8
		c-2.3,3-4.2,4.3-5.7,4.1c-1.1-0.1-1.9-1.2-2.4-3.2c-0.6-2.1-0.8-4.3-0.8-6.7c0-3.2,1.4-6.8,4.3-10.8c2.4-3.4,4.2-5.3,5.4-5.7
		c0.7-0.2,1.6-0.3,2.8-0.3c0.8,0,1.4,0,1.8,0.1c0.4,0.1,0.7,0.2,1,0.5c0.3,0.2,0.5,0.5,0.5,0.9c0,1-1.5,3.3-4.5,6.8
		c-3,3.5-4.5,5.7-4.5,6.6c0,0.3,0.1,0.5,0.3,0.7c0.4,0.3,1.5-0.5,3.3-2.4c3.1-3.3,5.1-5.5,6.3-6.5c2.4-2.2,5-4.2,7.9-6.1
		c2.9-1.9,4.9-2.8,6.1-2.8c0.5,0,1,0.5,1.5,1.5c0.5,1,0.8,2,0.8,3.1c0,0.7-0.1,1.2-0.3,1.7c-0.2,0.5-1.7,2.4-4.5,6
		c-1.4,1.7-2.5,3.4-3.3,4.9c-0.4,0.8-0.6,1.3-0.7,1.7c-0.3,0.8-0.4,1.5-0.4,2.1c0,1,0.4,1.5,1.3,1.5c1.4,0,4-1.2,7.8-3.5
		c1.2-0.8,3-1.9,5.3-3.5V178z"/>
	<path class="st2" d="M432.4,178c0,0.2-1.3,1.4-3.9,3.5c-2.9,2.4-5.8,4.5-8.7,6.3c-3.8,2.3-6.7,3.4-8.9,3.4c-1.7,0-3-0.7-3.7-2
		c-0.3-0.5-0.4-1.1-0.4-2c0-1.8,0.5-4.3,1.6-7.6c1.1-3.3,1.6-4.9,1.6-5c-0.9,0.4-1.8,0.8-2.7,1.2c-0.5,0.4-1.3,1.1-2.4,2.1v-2.8
		c1.9-1.4,3.7-2.8,5.5-4.1c3.6-2.8,5.2-4.6,4.7-5.5c-0.2-0.4-0.9-0.5-2.2-0.5c-0.8,0-1.4,0-1.8,0c-0.6,0-0.9-0.1-0.9-0.2
		c-0.3-0.9,0.2-2.2,1.5-4c1.3-1.8,2.5-2.9,3.4-3.4c0.5-0.3,1.6-0.4,3.3-0.5c1.7-0.1,2.7-0.2,2.9-0.3c0.5-0.3,1.5-1.3,3.1-3.2
		c1.5-1.9,2.5-3,2.8-3.2c0.8-0.4,1.9-0.6,3.1-0.6c0.8,0,1.3,0.1,1.5,0.3c0.2,0.2,0.3,0.4,0.3,0.7c0,0.6-0.6,1.7-1.8,3.3
		c-1.2,1.6-1.7,2.5-1.6,2.8c0.2,0.3,0.6,0.5,1.2,0.5c0.4,0,0.7,0,0.9,0c0.6,0,0.8,0.2,0.8,0.6c0,0.8-0.7,2.3-2.3,4.4
		c-1.6,2.1-2.9,3.3-3.8,3.7c-0.6,0.2-1.3,0.3-2.1,0.3c-0.4,0-0.7,0-0.9,0c-1.2,0-1.9,0.2-2.1,0.5c-2.1,3.5-3.2,5.4-3.4,5.8
		c-2,3.8-3,6.8-3,8.9c0,1.4,0.4,2.4,1.1,3.1c0.3,0.3,0.6,0.4,1.1,0.4c1.8,0,4.9-1.6,9.5-4.7c1.5-1,3.6-2.6,6.3-4.8V178z"/>
	<path class="st2" d="M512.5,155c0,6.5-2.8,12.6-8.3,18.3c-4.7,4.8-10.7,8.7-17.9,11.7c-6.5,2.7-12.3,4.1-17.4,4.1
		c-2.6,0-4.5-0.2-5.7-0.6c-1.9-0.6-2.9-1.4-3-2.4c-0.1-1-0.2-1.7-0.2-2.1c0-2.3,1.1-5.5,3.2-9.6c1.4-2.6,3.5-6,6.4-10.1
		c1.3-1.9,2.8-3.8,4.3-5.8c0.6-0.7,2.7-3.4,6.5-8.1c1.5-1.9,2.3-3.1,2.3-3.7c0-0.2-0.1-0.4-0.4-0.5c-1.2-0.6-4.2-0.1-8.9,1.5
		c-0.9,0.9-1.8,1.7-2.8,2.5c-1.4,0.7-2.8,1.4-4.1,2.1c-3.1,1.1-5.4,1.6-6.9,1.6c-0.5,0-0.9-0.1-1.1-0.2c-0.3-0.3-0.4-0.8-0.4-1.8
		c0-1.6,0.2-3.4,0.7-5.4c0.5-2,1-3.2,1.6-3.7c1.8-1.7,4.7-3.3,8.6-4.7c5.7-2.1,12.1-3.2,19.3-3.2c7.3,0,13.1,1.6,17.3,4.7
		C510.2,142.8,512.5,148,512.5,155z M507.7,156.4c0-3.7-2.3-6.6-7-8.6c-3.5-1.5-7.2-2.3-11.1-2.3c-1.5,0-2.3,0.2-2.4,0.5
		c-0.3,1.4-1.3,3.5-3.2,6.1c-1.9,2.6-3.8,5.2-5.6,7.8c-2.3,3.4-4.6,6.7-6.8,10c-2.7,4.1-4,7-4,8.5c0,0.7,0.2,1.2,0.6,1.5
		c1.1,0.7,2.7,1,4.9,1c7,0,14.2-2,21.5-6.1C503.3,169.7,507.7,163.7,507.7,156.4z"/>
	<path class="st2" d="M543.7,178c0,0.2-1,0.7-3,1.7c-1.2,0.6-2.3,1.2-3.5,1.7c-0.7,0.3-1.6,0.6-2.9,1c-0.8,0.2-1.5,0.4-2.3,0.6
		c-1.7,1.7-3.6,3.1-5.6,4.3c-2.1,1.2-4.3,1.8-6.8,1.8c-2.4,0-4.4-1.3-5.9-4c-1.3-2.3-2-4.8-2-7.6c0-5.5,2.7-10.4,8-14.6
		c4.4-3.5,8.3-5.2,11.6-5.2c1.7,0,3,0.3,3.7,0.9c0.7,0.6,1.1,1.4,1.1,2.4c-0.1,0.3-0.1,0.5-0.1,0.7c0,0.4,0.3,0.8,1,1.3
		c0.6,0.4,1,1,1.1,1.6c0.1,0.6,0.1,1.3,0.1,2c0,1.9-0.3,3.7-0.9,5.5c-0.6,1.8-1.2,3.6-1.9,5.5c0,0.3,0.2,0.6,0.5,0.8
		c0.3,0.2,0.5,0.2,0.8,0.2c1,0,2.5-0.6,4.5-1.8c0.9-0.5,1.7-1,2.6-1.6V178z M529.7,165.4c-0.5-0.3-2,0.6-4.5,2.5
		c-2.5,2-4.3,3.8-5.4,5.6c-1.5,2.6-2.2,5.1-2.2,7.5c0,0.8,0.2,1.4,0.5,1.7c0.8,0.7,1.7,1.1,2.8,1.1c0.9,0,1.7-0.2,2.5-0.6
		c0.8-0.4,1.8-1,3.1-1.8c0.3-0.2,0.4-0.6,0.5-1.3c0.1-0.6,0.2-1.4,0.2-2.2c0-0.8,0-1.5,0-2.1s0.1-1.3,0.2-2.1
		c0.1-0.7,0.7-2.4,1.8-5.1C529.9,166.6,530.1,165.5,529.7,165.4z"/>
	<path class="st2" d="M572.2,178c-3.1,2.5-5.5,4.3-7.3,5.6c-5.4,3.8-9.4,5.6-12.1,5.6c-2.9,0-5.1-1.3-6.8-3.9
		c-1.7-2.6-2.5-5.5-2.5-8.7c0-3.2,2.5-7.2,7.6-11.9c5.1-4.8,9.6-7.1,13.5-7.1c0.5,0,1.2,0.1,2.3,0.2c1.1,0.1,1.6,1.1,1.6,2.9
		c0,2-1.1,4.3-3.3,6.9c-2.2,2.6-3.9,3.7-5,3.3c-0.7-0.2-1.1-0.6-1.3-1.2c-0.2-0.6-0.6-0.8-1.3-0.6c-0.8,0.2-2.4,1.4-4.8,3.6
		c-2.4,2.2-3.7,3.5-3.7,4c0,2.2,0.7,3.8,2.1,4.8c1,0.7,2.2,1.1,3.7,1.1c2.4,0,6-1.3,10.8-3.8c2.1-1.1,4.3-2.2,6.4-3.4V178z"/>
	<path class="st2" d="M599.3,178c0,0.2-1.3,1.4-3.9,3.5c-2.9,2.4-5.8,4.5-8.7,6.3c-3.8,2.3-6.7,3.4-8.9,3.4c-1.7,0-3-0.7-3.7-2
		c-0.3-0.5-0.4-1.1-0.4-2c0-1.8,0.5-4.3,1.6-7.6c1.1-3.3,1.6-4.9,1.6-5c-0.9,0.4-1.8,0.8-2.7,1.2c-0.5,0.4-1.3,1.1-2.4,2.1v-2.8
		c1.9-1.4,3.7-2.8,5.5-4.1c3.6-2.8,5.2-4.6,4.7-5.5c-0.2-0.4-0.9-0.5-2.2-0.5c-0.8,0-1.4,0-1.8,0c-0.6,0-0.9-0.1-0.9-0.2
		c-0.3-0.9,0.2-2.2,1.5-4c1.3-1.8,2.5-2.9,3.4-3.4c0.5-0.3,1.6-0.4,3.3-0.5c1.7-0.1,2.7-0.2,2.9-0.3c0.5-0.3,1.5-1.3,3.1-3.2
		c1.5-1.9,2.5-3,2.8-3.2c0.8-0.4,1.9-0.6,3.1-0.6c0.8,0,1.3,0.1,1.5,0.3c0.2,0.2,0.3,0.4,0.3,0.7c0,0.6-0.6,1.7-1.8,3.3
		c-1.2,1.6-1.7,2.5-1.6,2.8c0.2,0.3,0.6,0.5,1.2,0.5c0.4,0,0.7,0,0.9,0c0.6,0,0.8,0.2,0.8,0.6c0.1,0.8-0.7,2.3-2.3,4.4
		c-1.6,2.1-2.9,3.3-3.8,3.7c-0.6,0.2-1.3,0.3-2.1,0.3c-0.4,0-0.7,0-0.9,0c-1.2,0-1.9,0.2-2.1,0.5c-2.1,3.5-3.2,5.4-3.4,5.8
		c-2,3.8-3,6.8-3,8.9c0,1.4,0.4,2.4,1.1,3.1c0.3,0.3,0.6,0.4,1.1,0.4c1.8,0,4.9-1.6,9.5-4.7c1.5-1,3.6-2.6,6.3-4.8V178z"/>
	<path class="st2" d="M630.5,178c0,0.2-1,0.7-3,1.7c-1.2,0.6-2.3,1.2-3.5,1.7c-0.7,0.3-1.6,0.6-2.9,1c-0.8,0.2-1.5,0.4-2.3,0.6
		c-1.7,1.7-3.6,3.1-5.6,4.3c-2.1,1.2-4.3,1.8-6.8,1.8c-2.4,0-4.4-1.3-5.9-4c-1.3-2.3-2-4.8-2-7.6c0-5.5,2.6-10.4,7.9-14.6
		c4.4-3.5,8.3-5.2,11.6-5.2c1.7,0,3,0.3,3.7,0.9c0.7,0.6,1.1,1.4,1.1,2.4c-0.1,0.3-0.1,0.5-0.1,0.7c0,0.4,0.3,0.8,1,1.3
		c0.6,0.4,1,1,1.1,1.6c0.1,0.6,0.1,1.3,0.1,2c0,1.9-0.3,3.7-0.9,5.5c-0.6,1.8-1.3,3.6-1.9,5.5c0,0.3,0.2,0.6,0.5,0.8
		c0.3,0.2,0.5,0.2,0.8,0.2c1,0,2.5-0.6,4.5-1.8c0.9-0.5,1.7-1,2.6-1.6V178z M616.5,165.4c-0.5-0.3-2,0.6-4.5,2.5
		c-2.5,2-4.3,3.8-5.4,5.6c-1.5,2.6-2.2,5.1-2.2,7.5c0,0.8,0.2,1.4,0.5,1.7c0.8,0.7,1.7,1.1,2.8,1.1c0.9,0,1.7-0.2,2.5-0.6
		c0.8-0.4,1.8-1,3.1-1.8c0.3-0.2,0.4-0.6,0.5-1.3c0.1-0.6,0.2-1.4,0.2-2.2c0-0.8,0-1.5,0-2.1s0.1-1.3,0.2-2.1
		c0.1-0.7,0.7-2.4,1.8-5.1C616.6,166.6,616.8,165.5,616.5,165.4z"/>
	<path class="st2" d="M659.5,177.8c0,0.7-1.9,2.8-5.8,6.3c-4.2,3.9-7.4,5.8-9.6,5.8c-1.3,0-2.4-0.7-3.3-2c-0.9-1.3-1.3-2.9-1.3-4.6
		c0-2.1,0.6-4.3,1.8-6.6c1.4-2.1,2.8-4.2,4.2-6.3c0-0.3-0.4-0.4-1.1-0.4c-1.1,0-2.6,0.2-4.5,0.7c-1.9,0.5-2.9,0.8-3,1
		c-0.8,1.7-1.8,3-3.1,3.9c-1.3,0.9-2.5,1.7-3.4,2.4v-2.8c0.5-0.3,0.9-0.7,1.2-1.1c0.3-0.4,0.4-0.9,0.4-1.5c0-0.4-0.1-0.7-0.3-0.9
		c-0.5-0.6-0.7-1.1-0.7-1.4c0-2.5,1.3-5.2,3.8-8c2.3-2.5,4.2-3.8,5.8-3.8c0.4,0,0.7,0.4,0.8,1.1c0.1,0.7,0.3,1.3,0.5,1.6
		c0.2,0.3,0.7,0.5,1.7,0.5c0.8,0,2.2-0.2,4.2-0.7c2-0.5,3.4-0.7,4.1-0.7c0.2,0,0.3,0,0.5,0c0.2,0.1,0.3,0.2,0.4,0.2
		c0.8,0.3,1.5,1.2,2,2.8c0.5,1.6,0.7,2.6,0.4,3c-1.2,1.1-2.3,2.3-3.3,3.4c-1.2,1.4-2.2,3-3.2,4.7c-0.6,1.1-1,2-1.2,2.7
		c-0.5,1.2-0.7,2.1-0.7,2.9c0,0.7,0.2,1.3,0.6,1.7c0.4,0.4,1.1,0.6,2,0.6c1.3,0,3.4-1.2,6.3-3.7c1-0.8,2.3-2.1,4-3.7V177.8z"/>
</g>
<g>
	<g>
		<path class="st2" d="M134.2,215.1c0.3,0.9,0.9,2.4,1.5,3.3h-7.6l-1.9-6.8l-1.9,1.6l-0.6,2.4c-0.4,1.5-0.3,2.1-0.2,2.8h-7.2
			c0.5-0.6,0.8-1.2,1.2-2.8l2.6-10.6c0.4-1.5,0.3-2.1,0.2-2.8h7.2c-0.5,0.6-0.8,1.2-1.2,2.8l-1.1,4.5l5.4-4.9
			c0.9-0.8,1.2-1.2,1.3-1.7c0.1-0.2,0.1-0.4,0.1-0.6h5.6c-0.8,0.4-1.4,0.7-2.5,1.6l-3.8,3.2L134.2,215.1z"/>
		<path class="st2" d="M144.7,206.5l-0.1,1.2h0.1c0.4-0.6,1-1.2,1.9-1.2h4.8c2.8,0,3.6,1.7,2.9,4.3l-1.2,4.8c-0.4,1.6-0.2,2.1,0,2.7
			h-7.3c0.5-0.6,0.9-1.1,1.3-2.7l1.5-5.8c0.2-0.7,0-1-0.7-1h-2.2c-0.7,0-1,0.3-1.2,1l-1.5,5.8c-0.4,1.6-0.2,2.1,0,2.7h-7.3
			c0.5-0.6,0.9-1.1,1.3-2.7l1.6-6.4c0.4-1.6,0.2-2.1,0-2.7H144.7z"/>
		<path class="st2" d="M171.3,214.8c-0.6,2.5-1.7,3.6-4.3,3.6h-9.3c-2.7,0-3.2-1.1-2.5-3.6l1.2-4.7c0.6-2.5,1.7-3.6,4.3-3.6h9.3
			c2.7,0,3.2,1.1,2.5,3.6L171.3,214.8z M161,215.1c-0.2,0.7,0,1,0.6,1h2.5c0.7,0,1-0.3,1.1-1l1.3-5.3c0.2-0.7,0-1-0.7-1h-2.5
			c-0.7,0-0.9,0.3-1.1,1L161,215.1z"/>
		<path class="st2" d="M193.9,209c0.2-0.5,0.5-1.2,0.6-1.6c0.1-0.3,0.1-0.7,0.1-1h3.3c-0.8,0.8-1.6,2.1-1.9,2.8l-4.5,9.1h-6.2
			l-0.1-9h-0.1l-4.5,9h-6.2l-0.2-8.9c0-1.8-0.2-2.1-0.5-3h7c-0.2,0.3-0.3,0.6-0.4,0.9c-0.1,0.6-0.1,1.1-0.1,1.5l0.2,5.2h0.1l3.8-7.6
			h6.8l0.2,7.6h0.1L193.9,209z"/>
		<path class="st2" d="M204.1,206.5l-0.1,1.2h0.1c0.4-0.6,1-1.2,1.9-1.2h4.8c2.8,0,3.6,1.7,2.9,4.3l-1.2,4.8c-0.4,1.6-0.2,2.1,0,2.7
			h-7.3c0.5-0.6,0.9-1.1,1.3-2.7l1.5-5.8c0.2-0.7,0-1-0.7-1H205c-0.7,0-1,0.3-1.2,1l-1.5,5.8c-0.4,1.6-0.2,2.1,0,2.7H195
			c0.5-0.6,0.9-1.1,1.3-2.7l1.6-6.4c0.4-1.6,0.2-2.1,0-2.7H204.1z"/>
		<path class="st2" d="M227.3,205c0.4-1.5,0.3-2.1,0.2-2.8h13.2c3.4,0,3.9,1.4,3.4,3.3l-0.5,1.8c-0.5,2-1.9,2.4-4.2,2.6l0,0.1
			c2.6,0.3,3.4,0.6,2.9,2.4l-0.7,2.7c-0.5,2-1.6,3.3-5,3.3h-13.2c0.5-0.6,0.8-1.2,1.2-2.8L227.3,205z M230.8,215.7h3.6
			c0.8,0,1-0.1,1.2-0.9l0.6-2.5c0.2-0.8,0-0.9-0.8-0.9h-3.6L230.8,215.7z M232.6,208.7h3.6c0.8,0,1-0.1,1.2-0.9l0.5-2
			c0.2-0.8,0-0.9-0.8-0.9h-3.6L232.6,208.7z"/>
		<path class="st2" d="M249.7,213.7l-0.3,1.1c-0.2,0.9,0.1,1.2,1.1,1.2h5.7c1.1,0,1.8-0.1,2.8-0.5l-1.2,2.8H246
			c-2.7,0-3.2-1.1-2.5-3.6l1.2-4.7c0.6-2.5,1.7-3.6,4.3-3.6h9.1c2.7,0,3.2,1.1,2.5,3.6l-0.9,3.6H249.7z M254.5,211.4l0.4-1.6
			c0.2-0.7,0-1-0.6-1h-2.5c-0.7,0-0.9,0.3-1.1,1l-0.4,1.6H254.5z"/>
		<path class="st2" d="M274.2,210c2.7,0,2.8,1.4,2.5,2.8l-0.6,2.4c-0.4,1.5-1.7,3.1-4.3,3.1h-11.1l0.3-2.9c1,0.5,1.4,0.7,3.5,0.7h5
			c0.6,0,0.8-0.2,0.9-0.6l0.1-0.3c0.1-0.5,0-0.6-0.6-0.6h-5.2c-2.7,0-2.8-1.4-2.5-2.9l0.6-2.3c0.5-1.8,2.2-3,4.5-3h10.3l-0.2,3
			c-0.3-0.6-2-0.8-3.3-0.8h-4.6c-0.6,0-0.8,0.2-0.9,0.4l-0.1,0.5c-0.1,0.3,0.1,0.4,0.7,0.4H274.2z"/>
		<path class="st2" d="M282.4,204.1l6-0.2l-0.6,2.6h4.8l-0.6,2.3h-4.8l-1.6,6.3c-0.2,0.8-0.1,1,0.9,1h2.1c1.2,0,2-0.3,2.3-0.5
			l-1.1,2.8h-7.5c-1.9,0-3.3-0.8-2.6-3.7l1.5-5.8h-2.6l0.6-2.3h2.6L282.4,204.1z"/>
		<path class="st2" d="M309.3,215.7c-0.4,1.6-0.2,2.1,0,2.7H302c0.5-0.6,0.9-1.1,1.3-2.7l1.7-6.8h-2.5l0.6-2.3h2.5l0.3-1.1
			c0.4-1.7,1.7-3.2,4.2-3.2h7.6l-0.3,2.8c-0.8-0.4-1.1-0.4-2-0.4h-2.2c-0.8,0-1.1,0.3-1.2,0.8l-0.3,1.2h4.8l-0.6,2.3H311
			L309.3,215.7z"/>
		<path class="st2" d="M330.8,214.8c-0.6,2.5-1.7,3.6-4.3,3.6h-9.3c-2.7,0-3.2-1.1-2.5-3.6l1.2-4.7c0.6-2.5,1.7-3.6,4.3-3.6h9.3
			c2.7,0,3.2,1.1,2.5,3.6L330.8,214.8z M320.5,215.1c-0.2,0.7,0,1,0.6,1h2.5c0.7,0,1-0.3,1.1-1l1.3-5.3c0.2-0.7,0-1-0.7-1h-2.5
			c-0.7,0-0.9,0.3-1.1,1L320.5,215.1z"/>
		<path class="st2" d="M340.3,206.5l-0.3,1.9h0.1c0.9-1.4,1.7-1.9,3.5-1.9h2.9l-1,3.9c-0.6-0.4-0.8-0.6-2.6-0.6
			c-2.3,0-2.9,0.4-3.3,2l-1,3.8c-0.4,1.6-0.2,2.1,0,2.7h-7.3c0.5-0.6,0.9-1.1,1.3-2.7l1.6-6.4c0.4-1.6,0.2-2.1,0-2.7H340.3z"/>
		<path class="st2" d="M358.4,205c0.4-1.5,0.3-2.1,0.2-2.8h13.2c3.4,0,3.9,1.4,3.4,3.3l-0.5,1.8c-0.5,2-1.9,2.4-4.2,2.6l0,0.1
			c2.6,0.3,3.4,0.6,2.9,2.4l-0.7,2.7c-0.5,2-1.6,3.3-5,3.3h-13.2c0.5-0.6,0.8-1.2,1.2-2.8L358.4,205z M361.9,215.7h3.6
			c0.8,0,1-0.1,1.2-0.9l0.6-2.5c0.2-0.8,0-0.9-0.8-0.9h-3.6L361.9,215.7z M363.6,208.7h3.6c0.8,0,1-0.1,1.2-0.9l0.5-2
			c0.2-0.8,0-0.9-0.8-0.9h-3.6L363.6,208.7z"/>
		<path class="st2" d="M380.8,213.7l-0.3,1.1c-0.2,0.9,0.1,1.2,1.1,1.2h5.7c1.1,0,1.8-0.1,2.8-0.5l-1.2,2.8h-11.9
			c-2.7,0-3.2-1.1-2.5-3.6l1.2-4.7c0.6-2.5,1.7-3.6,4.3-3.6h9.1c2.7,0,3.2,1.1,2.5,3.6l-0.9,3.6H380.8z M385.5,211.4l0.4-1.6
			c0.2-0.7,0-1-0.6-1h-2.5c-0.7,0-0.9,0.3-1.1,1l-0.4,1.6H385.5z"/>
		<path class="st2" d="M394.4,209.2c0.4-1.6,0.2-2.1,0-2.7h6.6l-2.3,9.1c-0.4,1.6-0.2,2.1,0,2.7h-7.3c0.5-0.6,0.9-1.1,1.3-2.7
			L394.4,209.2z M402,202.2l-0.8,3.1h-5.9l0.8-3.1H402z"/>
		<path class="st2" d="M409.1,206.5l-0.1,1.2h0.1c0.4-0.6,1-1.2,1.9-1.2h4.8c2.8,0,3.6,1.7,2.9,4.3l-1.2,4.8c-0.4,1.6-0.2,2.1,0,2.7
			H410c0.5-0.6,0.9-1.1,1.3-2.7l1.5-5.8c0.2-0.7,0-1-0.7-1h-2.2c-0.7,0-1,0.3-1.2,1l-1.5,5.8c-0.4,1.6-0.2,2.1,0,2.7h-7.3
			c0.5-0.6,0.9-1.1,1.3-2.7l1.6-6.4c0.4-1.6,0.2-2.1,0-2.7H409.1z"/>
		<path class="st2" d="M428.9,217.2L428.9,217.2c-0.3,0.5-0.8,1.2-1.9,1.2h-4.7c-2.7,0-3.4-1.5-2.8-3.7l1.1-4.5
			c0.5-2.2,1.9-3.7,4.7-3.7h4.7c1.2,0,1.5,0.4,1.6,1.3h0.1l0.6-1.3h6c-0.3,0.5-0.9,1.1-1.4,3.2l-2.2,8.7c-0.8,3.4-2.3,4.5-5.1,4.5
			h-11l0.3-3c0.9,0.4,1.4,0.7,2.6,0.7h5.1c1.3,0,1.6-0.3,2-1.8L428.9,217.2z M430.7,209.8c0.2-0.7,0-1-0.6-1h-2.3
			c-0.7,0-0.9,0.3-1.1,1l-1.3,5.3c-0.2,0.7,0,1,0.6,1h2.3c0.7,0,0.9-0.3,1.1-1L430.7,209.8z"/>
		<path class="st2" d="M450.1,205c0.4-1.5,0.3-2.1,0.2-2.8h13.2c3.4,0,3.9,1.4,3.4,3.3l-0.5,1.8c-0.5,2-1.9,2.4-4.2,2.6l0,0.1
			c2.6,0.3,3.4,0.6,2.9,2.4l-0.7,2.7c-0.5,2-1.6,3.3-5,3.3h-13.2c0.5-0.6,0.8-1.2,1.2-2.8L450.1,205z M453.5,215.7h3.6
			c0.8,0,1-0.1,1.2-0.9l0.6-2.5c0.2-0.8,0-0.9-0.8-0.9h-3.6L453.5,215.7z M455.3,208.7h3.6c0.8,0,1-0.1,1.2-0.9l0.5-2
			c0.2-0.8,0-0.9-0.8-0.9h-3.6L455.3,208.7z"/>
		<path class="st2" d="M472.5,213.7l-0.3,1.1c-0.2,0.9,0.1,1.2,1.1,1.2h5.7c1.1,0,1.8-0.1,2.8-0.5l-1.2,2.8h-11.9
			c-2.7,0-3.2-1.1-2.5-3.6l1.2-4.7c0.6-2.5,1.7-3.6,4.3-3.6h9.1c2.7,0,3.2,1.1,2.5,3.6l-0.9,3.6H472.5z M477.2,211.4l0.4-1.6
			c0.2-0.7,0-1-0.6-1h-2.5c-0.7,0-0.9,0.3-1.1,1l-0.4,1.6H477.2z"/>
		<path class="st2" d="M488.3,204.1l6-0.2l-0.6,2.6h4.8l-0.6,2.3h-4.8l-1.6,6.3c-0.2,0.8-0.1,1,0.9,1h2.1c1.2,0,2-0.3,2.3-0.5
			l-1.1,2.8h-7.5c-1.9,0-3.3-0.8-2.6-3.7l1.5-5.8h-2.6l0.6-2.3h2.6L488.3,204.1z"/>
		<path class="st2" d="M502.3,204.1l6-0.2l-0.6,2.6h4.7l-0.6,2.3h-4.8l-1.6,6.3c-0.2,0.8-0.1,1,0.9,1h2.1c1.2,0,2-0.3,2.3-0.5
			l-1.1,2.8h-7.5c-1.9,0-3.3-0.8-2.6-3.7l1.5-5.8h-2.6l0.6-2.3h2.6L502.3,204.1z"/>
		<path class="st2" d="M518.3,213.7l-0.3,1.1c-0.2,0.9,0.1,1.2,1.1,1.2h5.7c1.1,0,1.8-0.1,2.8-0.5l-1.2,2.8h-11.9
			c-2.7,0-3.2-1.1-2.5-3.6l1.2-4.7c0.6-2.5,1.7-3.6,4.3-3.6h9.1c2.7,0,3.2,1.1,2.5,3.6l-0.9,3.6H518.3z M523.1,211.4l0.4-1.6
			c0.2-0.7,0-1-0.6-1h-2.5c-0.7,0-0.9,0.3-1.1,1l-0.4,1.6H523.1z"/>
		<path class="st2" d="M537.8,206.5l-0.3,1.9h0c0.9-1.4,1.7-1.9,3.5-1.9h2.9l-1,3.9c-0.6-0.4-0.8-0.6-2.6-0.6c-2.3,0-2.9,0.4-3.3,2
			l-1,3.8c-0.4,1.6-0.2,2.1,0,2.7h-7.3c0.5-0.6,0.9-1.1,1.3-2.7l1.6-6.4c0.4-1.6,0.2-2.1,0-2.7H537.8z"/>
		<path class="st2" d="M543.8,214.1h6l-1.1,4.2h-6L543.8,214.1z M552.8,202.2l-1.6,6.5l-1.7,4.5h-4.8l0.5-4.5l1.6-6.5H552.8z"/>
	</g>
</g>
<path d="M454.4,22.4c0,0,0.6,1.9,2.8,1.2c0,0,3.2-5,3-12.8C460.2,10.8,456.1,15.1,454.4,22.4z"/>
<path d="M448,24.5c0,0,5,1.1,11.5,5.2C459.6,29.7,457.8,19.7,448,24.5z"/>
</svg>
