<svg xmlns="http://www.w3.org/2000/svg" width="90.533" height="86.276" viewBox="0 0 90.533 86.276"><defs><style>.a{fill:#f01719;stroke-width:1.5px;}.a,.b{stroke:#f01719;}.b{fill:none;stroke-linecap:round;stroke-linejoin:round;stroke-width:4.5px;}</style></defs><g transform="translate(2.25 0.75)"><path class="a" d="M275.408,277.387l12.937-12.938a1.664,1.664,0,0,0-1.177-2.841H246.615v-2a1.92,1.92,0,0,0-3.841,0v57.042a1.92,1.92,0,0,0,3.841,0V293.166h40.554a1.664,1.664,0,0,0,1.177-2.841Zm-29.232-12.45h36.975L271.878,276.21a1.664,1.664,0,0,0,0,2.354l11.273,11.273H246.176Z" transform="translate(-210.635 -257.685)"/><path class="b" d="M56.049,517.318l16.9-20.238L81.362,505l18.049-22.658L115.674,505l8.363-7.919,18.044,20.238Z" transform="translate(-56.049 -434.042)"/></g></svg>