<svg xmlns="http://www.w3.org/2000/svg" width="78.752" height="78.752" viewBox="0 0 78.752 78.752"><defs><style>.a{fill:#f01719;stroke:#f01719;}</style></defs><g transform="translate(0.5 0.5)"><path class="a" d="M175.349,362a38.876,38.876,0,1,1,38.876-38.876A38.92,38.92,0,0,1,175.349,362Zm0-73.932a35.056,35.056,0,1,0,35.056,35.056A35.1,35.1,0,0,0,175.349,288.065Z" transform="translate(-136.473 -284.245)"/><g transform="translate(21.019 22.22)"><g transform="translate(2.406 23.484)"><path class="a" d="M234.063,451.213c-8.52,0-15.451-6.258-15.451-13.95a1.813,1.813,0,0,1,3.607,0c0,5.9,5.313,10.693,11.844,10.693s11.844-4.8,11.844-10.693a1.813,1.813,0,0,1,3.607,0C249.514,444.954,242.583,451.213,234.063,451.213Z" transform="translate(-218.612 -435.634)"/></g><ellipse class="a" cx="6.12" cy="6.12" rx="6.12" ry="6.12"/><g transform="translate(23.476)"><ellipse class="a" cx="6.12" cy="6.12" rx="6.12" ry="6.12"/></g></g></g></svg>