<svg xmlns="http://www.w3.org/2000/svg" width="910.016" height="786.958" viewBox="0 0 910.016 786.958"><defs><style>.a{fill:#d8d6c5;}.a,.b{stroke:#fff;stroke-width:3px;}.b{fill:#1072b1;}.c{fill:#231f20;}</style></defs><g transform="translate(121.652 -4192.001)"><path class="a" d="M77.589,23.929s61.137,19.13,105.763,88.411c0,0,20.178-28.37,83.172-53.437,0,0-103.953-63.995-188.936-34.974" transform="translate(-198.756 4370.788)"/><path class="b" d="M273.187,184.256S215.114,80,84.251,78.683c0,0,31.2-34.307,89.888-60.042l203,54.771s-77.648,50.135-103.953,110.844" transform="translate(-99.655 4404.442)"/><path class="a" d="M395.153,256.694s-103.334-126.036-299-129.323c0,0,22.639-55.422,91.729-104.906,0,0,114.955,33.64,215.226,89.729,0,0,12.843,32.323-7.954,144.5" transform="translate(77.38 4461.327)"/><path class="b" d="M311.558,206.291s-87.125-79.124-196.572-44.8c0,0,15.907-85.125,9.176-132.625L288.03,103.417s25.639,52.024,23.528,102.874" transform="translate(357.547 4556.533)"/><path class="a" d="M260.685,144.611s-34.275-31.1-115.273-21.162c0,0-2.127-46.135-19.257-89.015,0,0,139.42,55.422,134.53,110.177" transform="translate(523.693 4639.374)"/><path class="c" d="M96.018,477.943,271.2,24.667l15.592,5.938L108.858,484.871Z" transform="translate(75.382 4494.088)"/><path class="b" d="M77.7,176.259s206.669-259.3,563.14-137.9c0,0-221.338,59.391-321,213.781,0,0-113.733-87.76-242.135-75.886" transform="translate(-197.046 4216.471)"/><path class="b" d="M440.726,522.532S452.251,180.746,114.212,8.575c0,0,125.068,205.812,101.032,392.175,0,0,138.705,18.955,225.481,121.782" transform="translate(346.033 4254.705)"/><path class="a" d="M92.956,223.793s72.758-144.484,321-215.75L428.63,13.98S559.048,222.729,531.44,408.664c0,0-170.06-182.887-438.484-184.872" transform="translate(29.837 4246.791)"/><path class="c" d="M113.937,50.267s2.127,7.589,10.383,4.62c0,0,11.621-19.956,11.018-50.8,0,0-15.288,17.32-21.4,46.182" transform="translate(341.942 4187.916)"/><path class="c" d="M112.464,12.263s18.479,4.286,42.324,20.622c0,0-6.557-39.419-42.324-20.622" transform="translate(320.031 4234)"/></g></svg>